<svg fill="#000000" xmlns="http://www.w3.org/2000/svg"  viewBox="0 0 24 24" width="96px" height="96px"><path d="M 12 2 C 8.193 2 2.5740156 4.7171094 2.0410156 17.912109 C 1.9950156 19.047109 2.9079687 20 4.0429688 20 L 6.7285156 20 C 8.1385798 21.240809 9.9815281 22 12 22 C 14.018472 22 15.86142 21.240809 17.271484 20 L 19.957031 20 C 21.092031 20 22.005938 19.047109 21.960938 17.912109 C 21.426937 4.7171094 15.807 2 12 2 z M 8 11 L 16 11 C 17.105 11 18 11.895 18 13 L 18 14 C 18 17.325562 15.325562 20 12 20 C 8.674438 20 6 17.325562 6 14 L 6 13 C 6 11.895 6.895 11 8 11 z"/></svg>