<svg xmlns="http://www.w3.org/2000/svg" width="24" height="24" viewBox="0 -960 960 960"><path d="M480-320q-117 0-198.5-81.5T200-600t81.5-198.5T480-880t198.5 81.5T760-600t-81.5 198.5T480-320m0-80q83 0 141.5-58.5T680-600t-58.5-141.5T480-800t-141.5 58.5T280-600t58.5 141.5T480-400m-80-200q17 0 28.5-11.5T440-640t-11.5-28.5T400-680t-28.5 11.5T360-640t11.5 28.5T400-600m160 0q17 0 28.5-11.5T600-640t-11.5-28.5T560-680t-28.5 11.5T520-640t11.5 28.5T560-600m-80-80q17 0 28.5-11.5T520-720t-11.5-28.5T480-760t-28.5 11.5T440-720t11.5 28.5T480-680M440-80v-40q0-33-23.5-56.5T360-200h-40q-17 0-28.5-11.5T280-240t11.5-28.5T320-280h320q17 0 28.5 11.5T680-240t-11.5 28.5T640-200h-40q-33 0-56.5 23.5T520-120v40zm40-520"/></svg>