<?xml version="1.0" encoding="utf-8"?>
<!-- Generator: Adobe Illustrator 27.6.1, SVG Export Plug-In . SVG Version: 6.00 Build 0)  -->
<svg version="1.1" id="Layer_1" xmlns="http://www.w3.org/2000/svg" xmlns:xlink="http://www.w3.org/1999/xlink" x="0px" y="0px"
	 viewBox="0 0 24 24" style="enable-background:new 0 0 24 24;" xml:space="preserve">
<path d="M18,23c-1.1,0-2-0.4-2.8-1.2C14.4,21,14,20.1,14,19s0.4-2,1.2-2.8C16,15.4,16.9,15,18,15s2,0.4,2.8,1.2
	C21.6,17,22,17.9,22,19s-0.4,2-1.2,2.8C20,22.6,19.1,23,18,23 M18,21c0.6,0,1-0.2,1.4-0.6S20,19.5,20,19s-0.2-1-0.6-1.4
	S18.6,17,18,17c-0.5,0-1,0.2-1.4,0.6C16.2,18,16,18.5,16,19s0.2,1,0.6,1.4C17,20.8,17.5,21,18,21"/>
<path d="M17.3,4.2c0,0-4.9-5.4-8.5,1c0,0-1.2,2.5-1.4,5.6c0,0-0.6,3-0.6,3.1c0,0,0,0.5-1.6,1.9l-1.9,1.8c0,0-1,0.5-0.9,0.8
	c0,0,0.2,0.5,0.5,0.8c0.3,0.3,0.8,0.5,0.8,0.5c0.3,0.1,0.8-0.9,0.8-0.9l1.7-2c1.5-1.7,1.8-1.7,1.8-1.7c0.2-0.1,3.1-0.8,3.1-0.8
	c3.1-0.4,5.5-1.7,5.5-1.7C23,8.8,17.3,4.2,17.3,4.2z M11.9,4.8c0.3,0,0.5,0.2,0.5,0.5c0,0.3-0.2,0.5-0.5,0.5s-0.5-0.2-0.5-0.5
	C11.4,5.1,11.6,4.8,11.9,4.8z M10.8,7c-0.3,0-0.5-0.2-0.5-0.5c0-0.3,0.2-0.5,0.5-0.5c0.3,0,0.5,0.2,0.5,0.5C11.3,6.8,11.1,7,10.8,7z
	 M16.3,6.9c0.3,0,0.5,0.2,0.5,0.5s-0.2,0.5-0.5,0.5c-0.3,0-0.5-0.2-0.5-0.5S16.1,6.9,16.3,6.9z M15.3,8.1c0.3,0,0.5,0.2,0.5,0.5
	c0,0.3-0.2,0.5-0.5,0.5c-0.3,0-0.5-0.2-0.5-0.5C14.8,8.3,15,8.1,15.3,8.1z M13.1,10.3c0.3,0,0.5,0.2,0.5,0.5c0,0.3-0.2,0.5-0.5,0.5
	c-0.3,0-0.5-0.2-0.5-0.5C12.6,10.5,12.8,10.3,13.1,10.3z M14.2,9.2c0.3,0,0.5,0.2,0.5,0.5c0,0.3-0.2,0.5-0.5,0.5
	c-0.3,0-0.5-0.2-0.5-0.5C13.7,9.4,13.9,9.2,14.2,9.2z M15.2,5.9c0.3,0,0.5,0.2,0.5,0.5c0,0.3-0.2,0.5-0.5,0.5
	c-0.3,0-0.5-0.2-0.5-0.5C14.7,6.1,14.9,5.9,15.2,5.9z M14.2,8c-0.3,0-0.5-0.2-0.5-0.5c0-0.3,0.2-0.5,0.5-0.5c0.3,0,0.5,0.2,0.5,0.5
	C14.7,7.7,14.4,8,14.2,8z M13.1,8.1c0.3,0,0.5,0.2,0.5,0.5c0,0.3-0.2,0.5-0.5,0.5c-0.3,0-0.5-0.2-0.5-0.5
	C12.6,8.4,12.8,8.1,13.1,8.1z M12,10.3c-0.3,0-0.5-0.2-0.5-0.5c0-0.3,0.2-0.5,0.5-0.5c0.3,0,0.5,0.2,0.5,0.5
	C12.5,10,12.3,10.3,12,10.3z M14.1,4.8c0.3,0,0.5,0.2,0.5,0.5c0,0.3-0.2,0.5-0.5,0.5c-0.3,0-0.5-0.2-0.5-0.5
	C13.6,5,13.8,4.8,14.1,4.8z M13,5.9c0.3,0,0.5,0.2,0.5,0.5c0,0.3-0.2,0.5-0.5,0.5c-0.3,0-0.5-0.2-0.5-0.5C12.5,6.2,12.7,5.9,13,5.9z
	 M10.9,8.2c0.3,0,0.5,0.2,0.5,0.5c0,0.3-0.2,0.5-0.5,0.5c-0.3,0-0.5-0.2-0.5-0.5C10.4,8.4,10.6,8.2,10.9,8.2z M11.9,7
	c0.3,0,0.5,0.2,0.5,0.5C12.5,7.8,12.3,8,12,8c-0.3,0-0.5-0.2-0.5-0.5C11.4,7.3,11.7,7,11.9,7z M10.7,13.3c-0.7,0.1-1.5,0.2-2.2,0.5
	c-0.1,0-0.2-0.1-0.2-0.1s-0.2-0.2-0.1-0.3c0.4-0.8,0.4-1.8,0.5-2.7c0-0.2,0-0.4,0.1-0.6c0.7,1.6,1.5,2.4,3.1,3.1
	C11.4,13.2,11.1,13.2,10.7,13.3z M15.3,11.3c-0.3,0-0.5-0.2-0.5-0.5c0-0.3,0.2-0.5,0.5-0.5c0.3,0,0.5,0.2,0.5,0.5
	C15.9,11,15.6,11.3,15.3,11.3z M16.4,10.2c-0.3,0-0.5-0.2-0.5-0.5c0-0.3,0.2-0.5,0.5-0.5c0.3,0,0.5,0.2,0.5,0.5
	C16.9,9.9,16.7,10.2,16.4,10.2z"/>
</svg>
