<svg xmlns="http://www.w3.org/2000/svg" width="24" height="24" viewBox="0 -960 960 960"><path d="M482-425 245-188q-12 12-28.5 12T188-188t-12-28.5 12-28.5l356-355H440v40q0 17-11.5 28.5T400-520t-28.5-11.5T360-560v-80q0-17 11.5-28.5T400-680h194q16 0 30.5 6t25.5 17l120 119q20 20 46.5 33.5T874-485q17 3 29.5 15.5T916-440t-14 28-31 9q-45-6-83-24t-70-49l-40-42-88 88 53 53q14 14 11.5 33.5T635-314L453-209q-14 8-30.5 4T398-223t-3.5-30.5T413-278l137-79zm-322-15q-17 0-28.5-11.5T120-480t11.5-28.5T160-520h120q17 0 28.5 11.5T320-480t-11.5 28.5T280-440zM80-560q-17 0-28.5-11.5T40-600t11.5-28.5T80-640h120q17 0 28.5 11.5T240-600t-11.5 28.5T200-560zm699-80q-33 0-57-23.5T698-720t24-56.5 57-23.5 57 23.5 24 56.5-24 56.5-57 23.5m-619-40q-17 0-28.5-11.5T120-720t11.5-28.5T160-760h120q17 0 28.5 11.5T320-720t-11.5 28.5T280-680z"/></svg>