<svg xmlns="http://www.w3.org/2000/svg" width="24" height="24" viewBox="0 -960 960 960"><path d="M80-240v-80q38 0 56.5-20t77.5-20 77.5 20 54.5 20q38 0 56.5-20t77.5-20q57 0 77.5 20t56.5 20q38 0 55.5-20t76.5-20 77.5 20 56.5 20v80q-57 0-77.5-20T746-280t-54.5 20-77.5 20q-57 0-77.5-20T480-280q-38 0-56.5 20T346-240t-76.5-20-55.5-20-56.5 20T80-240m0-160v-80q38 0 56.5-20t77.5-20q57 0 76.5 20t55.5 20q38 0 56.5-20t77.5-20q57 0 77 20t55 20q38 0 56.5-20t77.5-20q57 0 77.5 20t56.5 20v80q-59 0-78.5-20T746-440t-54.5 20-77.5 20q-57 0-77.5-20T480-440q-38 0-55.5 20T348-400t-78.5-20-55.5-20-56.5 20T80-400m0-160v-80q38 0 56.5-20t77.5-20q57 0 76.5 20t55.5 20q38 0 56.5-20t77.5-20q57 0 77 20t55 20q38 0 56.5-20t77.5-20q57 0 77.5 20t56.5 20v80q-59 0-78.5-20T746-600t-54.5 20-77.5 20q-57 0-77.5-20T480-600q-38 0-55.5 20T348-560t-78.5-20-55.5-20-56.5 20T80-560"/></svg>