<svg id="Layer_1" data-name="Layer 1" xmlns="http://www.w3.org/2000/svg" viewBox="0 0 122.88 121.57"><defs><style>.cls-1{fill-rule:evenodd;}</style></defs><title>competition</title><path class="cls-1" d="M120.4,90.14a2,2,0,0,1,.93,1.68v27.76a2,2,0,0,1-2,2H91.42a2,2,0,0,1-2-2V91.82A2,2,0,0,1,90.57,90a10.28,10.28,0,0,0,5.71,5.24,11.26,11.26,0,0,0,4.34.76A10.91,10.91,0,0,0,105,95l.41-.2c.36.19.74.36,1.12.52a11.31,11.31,0,0,0,9-.32,9.93,9.93,0,0,0,4.85-4.86ZM76,4.18a4.15,4.15,0,0,1,7.15,4.2c-1.75,3-10.52,18.8-12.16,20V40.17h0V61.91c.47,5.65-8.62,6.09-8.62,0v-18a2.92,2.92,0,0,1-1.78,0v18c.37,5.8-8.63,5.75-8.63,0V40.17h0V28.51C50.25,27.37,41.41,11.37,39.65,8.38a4.14,4.14,0,1,1,7.14-4.2l8.56,14.56a67.1,67.1,0,0,1,12.11,0L76,4.18ZM104.68,21.8a7.79,7.79,0,0,1,7.79,7.79c0,4.31-2.87,7.8-7.18,7.8s-8.41-3.49-8.41-7.8a7.8,7.8,0,0,1,7.8-7.79ZM115,51.15V85.42c.47,5.65-8.63,6.08-8.63,0v-18a2.92,2.92,0,0,1-1.78,0v18c.38,5.8-8.62,5.74-8.62,0V51.15H94.41v13.6c0,4.32-6.54,4.32-6.54,0V49.5c0-3.77,1.28-6.46,3.6-8.21,4-3,23.81-3,27.81,0,2.32,1.75,3.61,4.41,3.6,8.21V64.75c0,4.32-6.55,4.32-6.55,0V51.15ZM16.8,14a7.8,7.8,0,0,1,7.8,7.79c0,4.31-2.87,7.8-7.18,7.8S9,26.14,9,21.83A7.79,7.79,0,0,1,16.8,14ZM27.07,43.39V77.66c.47,5.65-8.62,6.08-8.62,0v-18a2.92,2.92,0,0,1-1.78,0v18c.38,5.8-8.63,5.74-8.63,0V43.39H6.54V57C6.54,61.31,0,61.31,0,57V41.74C0,38,1.27,35.28,3.6,33.53c4-3,23.81-3,27.8,0C33.72,35.28,35,37.94,35,41.74V57c0,4.32-6.55,4.32-6.55,0V43.39ZM60.74,0a7.79,7.79,0,0,1,5.82,2.61,8.25,8.25,0,0,1,.76,9.68,6.84,6.84,0,0,1-6,3.3,8.77,8.77,0,0,1-5.54-2A7.49,7.49,0,0,1,55.41,2.1,7.79,7.79,0,0,1,60.74,0Zm44.55,116.64a8.32,8.32,0,0,1-3.4-.66,5.58,5.58,0,0,1-2.33-1.83,4.4,4.4,0,0,1-.86-2.68h4.44a1.36,1.36,0,0,0,.29.84,1.81,1.81,0,0,0,.77.57,2.85,2.85,0,0,0,1.13.21,2.48,2.48,0,0,0,1.08-.22,1.81,1.81,0,0,0,.73-.6,1.59,1.59,0,0,0,.25-.89,1.3,1.3,0,0,0-.3-.87,1.87,1.87,0,0,0-.85-.6,3.47,3.47,0,0,0-1.26-.21h-1.65v-3H105a3,3,0,0,0,1.16-.21,1.84,1.84,0,0,0,.78-.6,1.39,1.39,0,0,0,.28-.87,1.47,1.47,0,0,0-.23-.84,1.67,1.67,0,0,0-.66-.57,2.2,2.2,0,0,0-1-.2,2.67,2.67,0,0,0-1.08.21,1.82,1.82,0,0,0-.74.59,1.58,1.58,0,0,0-.28.87H99a4.44,4.44,0,0,1,.82-2.63,5.39,5.39,0,0,1,2.23-1.79,8.55,8.55,0,0,1,6.44,0,5.36,5.36,0,0,1,2.17,1.68,4,4,0,0,1,.77,2.44,2.85,2.85,0,0,1-.93,2.23,4.06,4.06,0,0,1-2.4,1v.13a4.78,4.78,0,0,1,3,1.2,3.3,3.3,0,0,1,1,2.48,4,4,0,0,1-.85,2.53,5.68,5.68,0,0,1-2.39,1.72,9,9,0,0,1-3.52.63Zm-93.86-6.3v-3.17l6.06-5a12.44,12.44,0,0,0,1-.94,3.82,3.82,0,0,0,.67-.9,2.27,2.27,0,0,0,.23-1,2.09,2.09,0,0,0-.26-1.07,1.82,1.82,0,0,0-.74-.69,2.53,2.53,0,0,0-2.15,0,1.75,1.75,0,0,0-.72.73,2.38,2.38,0,0,0-.25,1.15H11.11a5.52,5.52,0,0,1,.77-3,5,5,0,0,1,2.17-1.9,7.55,7.55,0,0,1,3.29-.67,8.37,8.37,0,0,1,3.39.63,5,5,0,0,1,2.21,1.75,4.49,4.49,0,0,1,.78,2.63,4.7,4.7,0,0,1-.39,1.86,7.71,7.71,0,0,1-1.4,2,27.48,27.48,0,0,1-2.86,2.66l-1.52,1.27v.09h6.34v3.52Zm54-28.52V98.06H61.06V85.88H61L57.41,88V84.27l4-2.45ZM33.2,80.25a2,2,0,0,1,.26,1v38.35a2,2,0,0,1-2,2H3.54a2,2,0,0,1-2-2V81.23A2,2,0,0,1,2,80a10.1,10.1,0,0,0,6.44,7.5,11,11,0,0,0,4.34.76,10.91,10.91,0,0,0,4.42-1l.41-.2c.36.19.73.36,1.11.52a11.39,11.39,0,0,0,9-.31,9.81,9.81,0,0,0,5.52-7Zm44-16a1.91,1.91,0,0,1,.21.89v54.43a2,2,0,0,1-2,2H47.48a2,2,0,0,1-2-2V65.15A1.9,1.9,0,0,1,45.86,64a10.1,10.1,0,0,0,6.49,7.76,11.22,11.22,0,0,0,8.75-.26l.41-.21c.37.19.74.37,1.12.52a11.36,11.36,0,0,0,9-.31,9.76,9.76,0,0,0,5.57-7.24Z"/></svg>