<?xml version="1.0" encoding="utf-8"?><svg version="1.1" id="Layer_1" xmlns="http://www.w3.org/2000/svg" xmlns:xlink="http://www.w3.org/1999/xlink" x="0px" y="0px" viewBox="0 0 106.08 122.88" style="enable-background:new 0 0 106.08 122.88" xml:space="preserve"><style type="text/css"><![CDATA[
	.st0{fill-rule:evenodd;clip-rule:evenodd;}
]]></style><g><path class="st0" d="M5.8,88.99h94.48c3.19,0,5.8,2.61,5.8,5.8v22.29c0,3.19-2.61,5.8-5.8,5.8H5.8c-3.19,0-5.8-2.61-5.8-5.8V94.79 C0,91.6,2.61,88.99,5.8,88.99L5.8,88.99z M28.46,71.53H11.9c0.19-1.63,0.77-3.17,1.73-4.61c0.96-1.44,2.76-3.14,5.41-5.1 c1.62-1.2,2.65-2.11,3.11-2.74c0.45-0.62,0.68-1.22,0.68-1.77c0-0.61-0.22-1.12-0.67-1.55c-0.45-0.43-1.01-0.64-1.69-0.64 c-0.7,0-1.28,0.22-1.73,0.67c-0.45,0.45-0.75,1.23-0.9,2.36l-5.52-0.45c0.22-1.56,0.61-2.77,1.19-3.64 c0.58-0.87,1.39-1.54,2.44-2.01c1.05-0.47,2.51-0.7,4.37-0.7c1.94,0,3.45,0.22,4.53,0.67c1.08,0.44,1.93,1.12,2.54,2.03 c0.62,0.92,0.93,1.95,0.93,3.08c0,1.21-0.36,2.36-1.06,3.47c-0.71,1.1-2,2.31-3.87,3.63c-1.11,0.77-1.85,1.31-2.23,1.61 c-0.37,0.31-0.81,0.71-1.32,1.21h8.62V71.53L28.46,71.53z M25.87,6.85v20.19h-5.57V13.83c-0.9,0.68-1.77,1.23-2.62,1.65 s-1.9,0.83-3.18,1.21V12.2c1.88-0.61,3.34-1.34,4.37-2.19c1.04-0.85,1.85-1.91,2.44-3.16H25.87L25.87,6.85z M17.51,101.75 l-5.21-0.93c0.43-1.66,1.26-2.93,2.5-3.82c1.23-0.88,2.97-1.33,5.22-1.33c2.59,0,4.46,0.48,5.61,1.45 c1.15,0.97,1.73,2.18,1.73,3.64c0,0.85-0.24,1.63-0.7,2.32c-0.47,0.69-1.17,1.3-2.11,1.83c0.77,0.19,1.35,0.41,1.76,0.67 c0.66,0.41,1.17,0.94,1.53,1.6c0.37,0.67,0.55,1.46,0.55,2.38c0,1.16-0.3,2.26-0.91,3.33c-0.61,1.06-1.47,1.88-2.61,2.45 c-1.14,0.57-2.63,0.86-4.48,0.86c-1.8,0-3.23-0.21-4.27-0.64c-1.04-0.42-1.9-1.04-2.57-1.86c-0.67-0.82-1.19-1.85-1.55-3.09 l5.52-0.74c0.22,1.11,0.55,1.89,1.01,2.32c0.45,0.43,1.03,0.65,1.74,0.65c0.73,0,1.35-0.27,1.84-0.81 c0.49-0.54,0.73-1.26,0.73-2.17c0-0.92-0.24-1.63-0.71-2.14c-0.47-0.5-1.11-0.76-1.92-0.76c-0.43,0-1.03,0.11-1.78,0.32l0.29-3.94 c0.3,0.05,0.54,0.07,0.71,0.07c0.71,0,1.31-0.23,1.78-0.69c0.48-0.46,0.72-1,0.72-1.63c0-0.6-0.18-1.09-0.54-1.44 c-0.36-0.36-0.85-0.54-1.48-0.54c-0.65,0-1.17,0.19-1.58,0.59C17.92,100.09,17.65,100.77,17.51,101.75L17.51,101.75z M5.8,0h55.6 c3.19,0,5.8,2.61,5.8,5.8v22.29c0,3.19-2.61,5.8-5.8,5.8H5.8c-3.19,0-5.8-2.61-5.8-5.8V5.8C0,2.61,2.61,0,5.8,0L5.8,0z M5.8,44.5 h74.92c3.19,0,5.8,2.61,5.8,5.8v22.29c0,3.19-2.61,5.8-5.8,5.8H5.8c-3.19,0-5.8-2.61-5.8-5.8V50.29C0,47.1,2.61,44.5,5.8,44.5 L5.8,44.5z"/></g></svg>