<svg id="Layer_1" data-name="Layer 1" xmlns="http://www.w3.org/2000/svg" viewBox="0 0 122.88 74.57"><defs><style>.cls-1{fill-rule:evenodd;}</style></defs><title>fight-dispute</title><path class="cls-1" d="M102.43,64.39a31.59,31.59,0,0,0,1.62-6.34,28.23,28.23,0,0,0,.16-5.11,31.42,31.42,0,0,0-2.79-11,32.16,32.16,0,0,0-4.67-4.37,26,26,0,0,0-5.13-3,28.07,28.07,0,0,0-6.12-1.88,20.31,20.31,0,0,0-5.64-.3A12,12,0,0,0,75,34,4,4,0,0,0,73,36.36c-.25,1.36,2.25,2.4,5.09,3.15l.23,0A41,41,0,0,1,85,41a1.34,1.34,0,0,1-.64,2.59l-1.28-.25c-1.44-.26-3.33-.62-5.22-1.13-3.7-.42-6.62,0-8.78,1.18a9.11,9.11,0,0,0-4.32,5.72,17.06,17.06,0,0,0-.54,2.69,33.92,33.92,0,0,0,.25,8.66,16,16,0,0,0,2,6.11A10.51,10.51,0,0,0,71,70.23a20.21,20.21,0,0,0,7.4,1.66h0c1.27,0,2.56,0,3.85-.11s2.57-.23,3.85-.43a41.48,41.48,0,0,0,7-1.53,26,26,0,0,0,6.25-3l.07-.05a27.49,27.49,0,0,0,3.08-2.35Zm-83.6-6.32a32.1,32.1,0,0,0,1.62,6.32,27.49,27.49,0,0,0,3.08,2.35l.07.05a26,26,0,0,0,6.25,3,41.48,41.48,0,0,0,6.95,1.53c1.28.2,2.57.34,3.85.43s2.58.13,3.85.11h0a20.21,20.21,0,0,0,7.4-1.66,10.51,10.51,0,0,0,4.44-3.7,16,16,0,0,0,2-6.11,33.92,33.92,0,0,0,.25-8.66,17.06,17.06,0,0,0-.54-2.69,9.11,9.11,0,0,0-4.32-5.72c-2.16-1.18-5.09-1.6-8.78-1.18-1.89.52-3.78.87-5.22,1.13l-1.28.25A1.34,1.34,0,0,1,37.84,41a41.24,41.24,0,0,1,6.68-1.42l.23,0c2.83-.75,5.34-1.79,5.09-3.15A4,4,0,0,0,47.9,34,12,12,0,0,0,43,32.31a20.31,20.31,0,0,0-5.64.3,28.07,28.07,0,0,0-6.12,1.88,26,26,0,0,0-5.13,3,32.16,32.16,0,0,0-4.67,4.37,31.42,31.42,0,0,0-2.79,11,28.45,28.45,0,0,0,.16,5.13Zm-.42,8.07c-.81,0-1.72.1-2.66.17-5.32.38-11.66.84-14-3.48C.46,60.59-.19,55.66.05,51.14c.22-4,1.13-7.7,3-9.33a6.72,6.72,0,0,1,2.05-1.25A8.75,8.75,0,0,1,7.38,40l12.4-.21a34.32,34.32,0,0,1,4.74-4.38,28.53,28.53,0,0,1,5.67-3.35A30.41,30.41,0,0,1,36.9,30a22.57,22.57,0,0,1,6.39-.33,15.05,15.05,0,0,1,6.05,2.11,6.43,6.43,0,0,1,3.12,4.12,3.73,3.73,0,0,1-1.63,3.71A13.5,13.5,0,0,1,55,41a11.66,11.66,0,0,1,5.61,7.31,18.64,18.64,0,0,1,.63,3.13c.09.73.14,1.56.17,2.45h0c0-.89.08-1.72.17-2.45a18.64,18.64,0,0,1,.63-3.13A11.63,11.63,0,0,1,67.85,41a13.5,13.5,0,0,1,4.2-1.41,3.73,3.73,0,0,1-1.63-3.71,6.43,6.43,0,0,1,3.12-4.12,15.05,15.05,0,0,1,6-2.11A22.57,22.57,0,0,1,86,30a30.41,30.41,0,0,1,6.71,2.07,28.82,28.82,0,0,1,5.67,3.35,34.32,34.32,0,0,1,4.74,4.38l12.29.2h.11a8.75,8.75,0,0,1,2.32.56,6.84,6.84,0,0,1,2.05,1.25c1.83,1.63,2.74,5.38,3,9.33.24,4.52-.41,9.45-1.65,11.69-2.39,4.32-8.73,3.86-14.05,3.48-.94-.07-1.85-.14-2.66-.17A30.33,30.33,0,0,1,100.82,69l-.07.05a28.7,28.7,0,0,1-6.88,3.36A45.66,45.66,0,0,1,86.48,74c-1.33.2-2.69.35-4.07.44s-2.68.13-4.07.11h-.13a23,23,0,0,1-8.38-1.91A13.13,13.13,0,0,1,64.31,68a18.59,18.59,0,0,1-2.43-7.2A36.72,36.72,0,0,1,61.44,56h0A36.72,36.72,0,0,1,61,60.82,18.59,18.59,0,0,1,58.57,68a13.13,13.13,0,0,1-5.52,4.63,23,23,0,0,1-8.38,1.91h-.13c-1.39,0-2.75,0-4.07-.11s-2.74-.24-4.07-.44A45.66,45.66,0,0,1,29,72.37,28.7,28.7,0,0,1,22.13,69L22.06,69a30.33,30.33,0,0,1-3.65-2.82ZM11.14,41.2,17,41c-3.36,3-4,3.88-4.58,8.19-.17,1.29-.29,2.63-.35,4,.29,2.19-.47,3.34-2.39,3.32l-1,0c-1.36-.32-2.38-1.15-2.23-3.79l.5-4.19c.22-1.88.15-4,1.49-5.46a8.52,8.52,0,0,1,2.74-1.93ZM73,52.27a1.19,1.19,0,0,1,2.3-.63,22.33,22.33,0,0,1,.82,5,17.68,17.68,0,0,1-.45,5A1.19,1.19,0,0,1,73.38,61a15.1,15.1,0,0,0,.4-4.29A20.11,20.11,0,0,0,73,52.27Zm6.44,0a1.19,1.19,0,0,1,2.29-.63,23,23,0,0,1,.83,5,17.33,17.33,0,0,1-.46,5A1.19,1.19,0,1,1,79.82,61a15.09,15.09,0,0,0,.39-4.29,20.69,20.69,0,0,0-.74-4.45Zm-31.92-.63a1.19,1.19,0,0,1,2.3.63,20,20,0,0,0-.75,4.45A15.1,15.1,0,0,0,49.5,61a1.19,1.19,0,1,1-2.32.56,17.68,17.68,0,0,1-.45-5,22.33,22.33,0,0,1,.82-5Zm-6.43,0a1.19,1.19,0,0,1,2.29.63,20.58,20.58,0,0,0-.74,4.45A15.09,15.09,0,0,0,43.06,61a1.2,1.2,0,0,1-.88,1.44,1.19,1.19,0,0,1-1.43-.88,17.33,17.33,0,0,1-.46-5,23,23,0,0,1,.83-5Zm12.45-23.7a1.66,1.66,0,0,1-2.12,2.55L37.23,18.67,53.48,19,50.81,5.21l11.76,7.84L68.88,0l4.41,13.55,13.39-7-4.9,14.09,14,1.32-6.59,7a1.66,1.66,0,0,1-2.42-2.27l2-2.09L77.25,23.51l3.54-10.16-9.45,5L68.28,8.88l-4.38,9-8.32-5.55,1.94,10-10.89-.22,6.94,5.77Zm50.87,14.25a33.56,33.56,0,0,1,2.43,10.61,32.72,32.72,0,0,1-1.27,11l1.7.12c4.63.34,10.15.74,11.79-2.25,1-1.89,1.59-6.28,1.36-10.42-.18-3.39-.86-6.51-2.17-7.67a4.28,4.28,0,0,0-1.33-.82,6.67,6.67,0,0,0-1.68-.4l-1.63,0a6.36,6.36,0,0,1,.84.79c1.34,1.49,1.27,3.58,1.49,5.46l.5,4.19c.15,2.64-.87,3.47-2.23,3.79l-1,0c-1.92,0-2.68-1.13-2.39-3.32-.06-1.39-.18-2.73-.35-4-.47-3.65-1-4.86-3.21-7l-2.86,0Z"/></svg>