<?xml version="1.0" encoding="utf-8"?><svg version="1.1" id="Layer_1" xmlns="http://www.w3.org/2000/svg" xmlns:xlink="http://www.w3.org/1999/xlink" x="0px" y="0px" viewBox="0 0 122.88 122.89" style="enable-background:new 0 0 122.88 122.89" xml:space="preserve"><style type="text/css">.st0{fill-rule:evenodd;clip-rule:evenodd;}</style><g><path class="st0" d="M81.61,4.73c0-2.61,2.58-4.73,5.77-4.73c3.19,0,5.77,2.12,5.77,4.73v20.72c0,2.61-2.58,4.73-5.77,4.73 c-3.19,0-5.77-2.12-5.77-4.73V4.73L81.61,4.73L81.61,4.73z M49.73,68.44l-3.44,27.87h-9.67c-0.88-4.28-1.66-9.15-2.33-14.6 c-0.31,2.33-1.02,7.19-2.15,14.6h-9.61l-3.46-27.87h7.52l0.79,9.73l0.81,9.38c0.28-4.85,1-11.22,2.13-19.11h8.05 c0.11,0.82,0.4,3.88,0.85,9.19l0.85,10.59c0.43-6.74,1.14-13.33,2.15-19.78H49.73L49.73,68.44z M52.07,68.44h12.9v5.58H59.8v5.28 h4.84v5.31H59.8v6.13h5.68v5.58H52.07V68.44L52.07,68.44z M68.51,68.44h12.9v5.58h-5.17v5.28h4.84v5.31h-4.84v6.13h5.68v5.58H68.51 V68.44L68.51,68.44z M103.38,68.44l-4.43,12.58l4.85,15.29h-7.99l-3.13-11.95v11.95h-7.73V68.44h7.73v10.83l3.44-10.83H103.38 L103.38,68.44z M29.61,4.73c0-2.61,2.58-4.73,5.77-4.73c3.19,0,5.77,2.12,5.77,4.73v20.72c0,2.61-2.58,4.73-5.77,4.73 c-3.19,0-5.77-2.12-5.77-4.73V4.73L29.61,4.73L29.61,4.73z M6.4,45.32h110.08V21.47c0-0.8-0.33-1.53-0.86-2.07 c-0.53-0.53-1.26-0.86-2.07-0.86H103c-1.77,0-3.2-1.43-3.2-3.2c0-1.77,1.43-3.2,3.2-3.2h10.55c2.57,0,4.9,1.05,6.59,2.74 c1.69,1.69,2.74,4.02,2.74,6.59v27.06v65.03c0,2.57-1.05,4.9-2.74,6.59c-1.69,1.69-4.02,2.74-6.59,2.74H9.33 c-2.57,0-4.9-1.05-6.59-2.74c-1.69-1.7-2.74-4.03-2.74-6.6V48.53V21.47c0-2.57,1.05-4.9,2.74-6.59c1.69-1.69,4.02-2.74,6.59-2.74 H20.6c1.77,0,3.2,1.43,3.2,3.2c0,1.77-1.43,3.2-3.2,3.2H9.33c-0.8,0-1.53,0.33-2.07,0.86c-0.53,0.53-0.86,1.26-0.86,2.07V45.32 L6.4,45.32L6.4,45.32z M116.48,51.73H6.4v61.82c0,0.8,0.33,1.53,0.86,2.07c0.53,0.53,1.26,0.86,2.07,0.86h104.22 c0.8,0,1.53-0.33,2.07-0.86c0.53-0.53,0.86-1.26,0.86-2.07V51.73L116.48,51.73L116.48,51.73z M50.43,18.54 c-1.77,0-3.2-1.43-3.2-3.2c0-1.77,1.43-3.2,3.2-3.2h21.49c1.77,0,3.2,1.43,3.2,3.2c0,1.77-1.43,3.2-3.2,3.2H50.43L50.43,18.54 L50.43,18.54z"/></g></svg>