<svg xmlns="http://www.w3.org/2000/svg" width="604" height="148" viewBox="0 0 604 148" fill="none"><path d="M287.501 126.938H268.984V85.0791H224.537V126.938H205.804V23.7188H224.537V66.0352H268.984V23.4502H287.501V126.938ZM382.02 41.1367H330.512V65.8467H377.02V84.4365H330.512V109.034H382.02V126.67H311.143V23.4502H382.02V41.1367ZM449.256 104.231L477.329 23.5684H497.95L462.042 126.188H436.534L400.48 23.5684H420.955L449.256 104.231ZM557.091 63.8535L578.974 23.5684H600.916L566.523 84.0898V126.188H547.807V84.3496L513.267 23.5684H535.208L557.091 63.8535Z" fill="black"/><path d="M115.441 123.076C116.026 123.664 117.18 124.14 118.004 124.145C119.692 124.154 122.88 123.4 124.685 123.082C130.052 122.138 142.545 119.637 146.559 116.239C147.53 115.416 147.47 114.952 147.662 113.75C148.591 107.921 148.452 101.268 148.575 95.3467C149 74.8312 148.85 54.2542 147.38 33.8136C147.219 33.0086 144.486 31.7163 143.7 31.3595C139.329 29.3717 133.994 28.0974 129.294 27.069C126.173 26.3854 121.689 25.2596 118.6 25.0527C116.383 24.9043 114.721 25.9657 114.492 28.2713C113.977 33.4613 114.764 39.5672 114.496 44.8981C114.08 53.1988 110.418 61.8143 104.998 68.0297C97.5867 76.5282 85.8701 80.7587 76.5839 86.8917C72.8231 89.3757 69.7611 92.8102 67.9637 96.9763C62.4759 109.696 71.5585 125.133 58.938 135.255C52.4474 140.46 46.6422 139.85 38.9559 138.508C28.7748 136.732 9.8373 132.924 3.875 123.778C0.669362 118.862 0.979151 108.47 0.712763 102.537C-0.135787 83.6206 -0.273471 64.3973 0.554127 45.4858C0.798067 39.906 0.706777 31.361 3.16563 26.3884C8.63556 15.3249 27.6703 11.5366 38.7838 9.79909C45.656 8.72571 50.8386 7.92368 57.0628 11.8079C69.8976 18.7955 66.0272 37.2664 66.0272 50.259C66.0272 54.8781 60.8924 60.0678 56.9835 60.0678C52.9398 60.4036 50.4525 56.0726 50.1921 52.5302C49.6024 44.5069 50.6455 35.7655 50.1981 27.6657C49.4004 23.3242 45.0334 24.7514 41.9236 25.2206C35.6709 26.1651 23.5278 28.4122 18.5997 32.259C17.2632 33.3024 17.2707 33.6922 17.0253 35.3247C16.3892 39.5582 16.4252 43.9162 16.262 48.1872C15.7786 60.9163 15.9014 73.7578 16.1124 86.5094C16.2695 96.0468 16.3907 105.584 17.3336 115.086C17.5341 115.778 20.623 117.274 21.3893 117.613C29.2253 121.069 38.465 122.273 46.8338 123.875C48.6132 123.701 49.9212 122.586 50.1801 120.79C50.3821 111.127 49.1984 101.926 52.627 92.6933C59.0832 75.3049 73.1359 71.4267 87.3233 62.4544C91.6723 59.705 95.1772 55.9512 97.0689 51.1C101.931 38.6288 93.4367 24.1892 105.367 13.8902C112.412 7.80975 119.6 9.14097 127.974 10.7196C137.765 12.5665 155.927 16.3907 161.217 25.6434C164.009 30.526 163.727 41.0694 163.974 46.841C164.781 65.6715 164.942 84.7449 164.131 103.589C163.901 108.951 164.004 117.048 161.762 121.881C156.895 132.378 139.827 136.256 129.468 138.205C121.584 139.689 114.508 141.356 107.323 136.667C102.136 133.282 98.9725 127.62 98.6328 121.412C98.2108 113.702 98.7839 105.388 98.8573 97.6659C99.8884 92.5419 106.081 86.0102 111.349 90.2572C113.09 91.6604 114.338 94.005 114.493 96.2417C115.053 104.24 114.061 112.891 114.486 120.956C114.561 121.631 114.96 122.593 115.438 123.073L115.441 123.076Z" fill="black"/></svg>